<?xml version="1.0" standalone="no"?>
<!DOCTYPE svg PUBLIC "-//W3C//DTD SVG 20010904//EN"
 "http://www.w3.org/TR/2001/REC-SVG-20010904/DTD/svg10.dtd">
<svg version="1.0" xmlns="http://www.w3.org/2000/svg"
 width="311.000000pt" height="100.000000pt" viewBox="0 0 311.000000 100.000000"
 preserveAspectRatio="xMidYMid meet">

<g transform="translate(0.000000,100.000000) scale(0.100000,-0.100000)"
fill="#000000" stroke="none">
<path d="M1010 500 l0 -160 86 0 c74 0 85 2 80 16 -3 9 -6 20 -6 25 0 5 -25 9
-55 9 l-55 0 0 135 0 135 -25 0 -25 0 0 -160z"/>
<path d="M1225 618 c-70 -70 -73 -157 -8 -229 45 -49 91 -63 158 -46 43 10 55
19 83 61 41 62 43 120 7 183 -32 54 -69 73 -141 73 -53 0 -59 -2 -99 -42z
m181 -42 c28 -28 34 -42 34 -76 0 -34 -6 -48 -34 -76 -46 -46 -104 -48 -146
-5 -52 51 -52 111 0 162 42 43 100 41 146 -5z"/>
<path d="M1587 642 c-15 -9 -25 -22 -23 -29 3 -7 0 -12 -7 -10 -16 3 -47 -62
-47 -100 0 -106 102 -189 199 -163 39 10 111 77 111 103 0 6 -9 -3 -20 -21
-41 -67 -134 -92 -195 -52 -25 16 -25 18 -6 23 11 3 18 0 17 -7 -2 -6 -1 -8 1
-5 2 4 23 5 46 3 l42 -3 -37 8 c-77 16 -115 63 -104 130 3 19 14 44 26 56 27
29 26 43 -2 19 -14 -12 -18 -13 -10 -3 6 9 8 20 4 24 -4 5 -2 5 5 1 7 -4 17 2
23 13 8 16 20 20 59 19 58 0 103 -24 131 -70 11 -18 20 -27 20 -19 0 7 -20 33
-44 57 -41 42 -46 44 -102 44 -38 0 -69 -7 -87 -18z m-2 -232 c-3 -5 -12 -10
-18 -10 -7 0 -6 4 3 10 19 12 23 12 15 0z"/>
<path d="M1870 501 c0 -88 4 -162 9 -165 22 -14 41 7 39 43 l-1 36 -4 -32 c-3
-20 -10 -33 -19 -33 -11 0 -14 26 -14 150 0 127 2 150 15 150 12 0 15 -14 15
-65 0 -61 9 -80 26 -53 4 7 3 8 -4 4 -9 -5 -12 11 -12 58 0 64 -1 66 -25 66
l-25 0 0 -159z"/>
<path d="M2016 652 c-3 -5 9 -6 26 -4 23 4 29 2 23 -8 -5 -9 -4 -11 3 -6 7 4
12 11 12 17 0 11 -57 12 -64 1z"/>
<path d="M2278 618 c-13 -24 -32 -55 -42 -70 -10 -16 -16 -28 -13 -28 3 0 23
29 46 64 34 55 46 65 73 69 l33 4 -37 1 c-33 2 -38 -2 -60 -40z"/>
<path d="M2498 651 c72 -5 86 -9 103 -30 10 -13 19 -19 19 -14 0 5 -10 19 -23
31 -20 19 -34 22 -103 20 l-79 -1 83 -6z"/>
<path d="M2651 633 c2 -24 2 -24 6 -6 4 21 11 22 96 26 l92 3 -97 2 -98 2 1
-27z"/>
<path d="M1989 613 c-13 -16 -12 -17 4 -4 9 7 17 15 17 17 0 8 -8 3 -21 -13z"/>
<path d="M220 597 c0 -36 29 -148 45 -173 21 -32 99 -48 159 -33 39 10 51 18
71 54 14 23 25 48 25 56 -1 8 -7 1 -15 -16 -7 -16 -14 -23 -14 -15 -1 9 -7 6
-18 -10 -9 -14 -24 -30 -33 -37 -16 -13 -97 -17 -125 -7 -24 10 -45 58 -45
104 0 35 4 42 28 51 34 14 157 6 177 -11 8 -7 16 -27 16 -44 l2 -31 4 29 c3
19 -2 35 -16 50 l-21 22 107 2 c97 1 104 0 73 -11 -34 -12 -35 -13 -35 -69 0
-31 -3 -54 -8 -51 -5 3 -4 -4 2 -16 15 -27 57 -54 73 -48 8 3 5 6 -7 7 -14 2
-11 5 10 10 30 8 30 8 3 9 -38 2 -68 44 -68 97 0 42 1 44 38 53 20 5 72 12
115 16 42 4 77 11 77 16 0 5 -115 9 -272 9 -150 0 -290 3 -310 6 -36 6 -38 5
-38 -19z m415 -167 c10 -11 16 -20 13 -20 -3 0 -13 9 -23 20 -10 11 -16 20
-13 20 3 0 13 -9 23 -20z"/>
<path d="M1620 611 c0 -6 17 -7 38 -4 51 8 53 13 4 13 -23 0 -42 -4 -42 -9z"/>
<path d="M872 590 c0 -14 2 -19 5 -12 2 6 2 18 0 25 -3 6 -5 1 -5 -13z"/>
<path d="M2024 588 l-19 -23 23 19 c21 18 27 26 19 26 -2 0 -12 -10 -23 -22z"/>
<path d="M2462 568 l-2 -48 49 0 c28 0 52 3 54 8 3 4 -17 5 -43 4 l-49 -4 -4
44 -4 43 -1 -47z"/>
<path d="M2722 479 c-2 -141 3 -161 39 -138 11 7 9 9 -8 9 -22 0 -22 3 -26
133 l-3 132 -2 -136z"/>
<path d="M2772 590 c0 -14 2 -19 5 -12 2 6 2 18 0 25 -3 6 -5 1 -5 -13z"/>
<path d="M2622 565 c0 -16 2 -22 5 -12 2 9 2 23 0 30 -3 6 -5 -1 -5 -18z"/>
<path d="M2571 564 c0 -11 3 -14 6 -6 3 7 2 16 -1 19 -3 4 -6 -2 -5 -13z"/>
<path d="M823 515 c0 -27 2 -38 4 -22 2 15 2 37 0 50 -2 12 -4 0 -4 -28z"/>
<path d="M1984 538 l-19 -23 23 19 c21 18 27 26 19 26 -2 0 -12 -10 -23 -22z"/>
<path d="M2280 530 c-6 -11 -8 -20 -6 -20 3 0 10 9 16 20 6 11 8 20 6 20 -3 0
-10 -9 -16 -20z"/>
<path d="M567 509 c4 -13 8 -18 11 -10 2 7 -1 18 -6 23 -8 8 -9 4 -5 -13z"/>
<path d="M1782 500 c0 -19 2 -27 5 -17 2 9 2 25 0 35 -3 9 -5 1 -5 -18z"/>
<path d="M1823 495 c0 -22 2 -30 4 -17 2 12 2 30 0 40 -3 9 -5 -1 -4 -23z"/>
<path d="M2592 502 c-13 -13 -22 -26 -19 -28 2 -2 14 7 27 21 13 14 22 26 19
28 -2 2 -14 -8 -27 -21z"/>
<path d="M2164 439 c-57 -89 -59 -95 -39 -102 21 -9 65 9 65 26 0 26 35 46 85
50 l50 3 -57 2 c-54 2 -57 1 -78 -33 -15 -24 -29 -35 -46 -35 -23 0 -23 2 26
80 28 44 48 80 45 80 -3 0 -26 -32 -51 -71z"/>
<path d="M2257 493 c-19 -18 -5 -33 31 -31 l37 1 -33 4 c-24 3 -32 8 -28 19 6
15 3 18 -7 7z"/>
<path d="M2467 473 c-4 -3 -7 -33 -7 -65 0 -51 -2 -58 -20 -58 -17 0 -20 7
-22 48 l-1 47 -4 -45 c-3 -33 0 -47 12 -56 32 -24 45 -6 45 63 l0 65 29 -4
c17 -2 28 -1 25 4 -6 10 -48 11 -57 1z"/>
<path d="M1980 466 c0 -2 8 -10 18 -17 15 -13 16 -12 3 4 -13 16 -21 21 -21
13z"/>
<path d="M801 437 c-13 -21 -12 -21 5 -5 10 10 16 20 13 22 -3 3 -11 -5 -18
-17z"/>
<path d="M1766 443 c-6 -14 -5 -15 5 -6 7 7 10 15 7 18 -3 3 -9 -2 -12 -12z"/>
<path d="M2596 427 c3 -10 9 -15 12 -12 3 3 0 11 -7 18 -10 9 -11 8 -5 -6z"/>
<path d="M815 420 c-3 -5 -20 -14 -38 -19 -23 -7 -26 -9 -11 -10 12 -1 32 8
45 19 13 10 21 19 17 20 -4 0 -10 -4 -13 -10z"/>
<path d="M2546 417 c3 -10 9 -15 12 -12 3 3 0 11 -7 18 -10 9 -11 8 -5 -6z"/>
<path d="M2050 385 c13 -14 26 -25 28 -25 3 0 -5 11 -18 25 -13 14 -26 25 -28
25 -3 0 5 -11 18 -25z"/>
<path d="M698 383 c6 -2 18 -2 25 0 6 3 1 5 -13 5 -14 0 -19 -2 -12 -5z"/>
<path d="M2006 368 c22 -30 50 -41 73 -28 12 7 9 9 -13 10 -17 0 -41 10 -55
23 l-24 22 19 -27z"/>
<path d="M2626 366 c8 -20 -26 -22 -45 -3 -10 10 -11 9 -6 -5 11 -28 65 -31
65 -3 0 8 -4 17 -10 20 -6 3 -7 -1 -4 -9z"/>
<path d="M2333 343 c9 -2 23 -2 30 0 6 3 -1 5 -18 5 -16 0 -22 -2 -12 -5z"/>
</g>
</svg>
