<?xml version="1.0" standalone="no"?>
<!DOCTYPE svg PUBLIC "-//W3C//DTD SVG 1.1//EN" "http://www.w3.org/Graphics/SVG/1.1/DTD/svg11.dtd" >
<svg>
<metadata>
Created by FontForge 20090622 at Fri Feb 22 16:55:31 2019
 By ffonts
Copr. 2014 by Nick Matavka.  Based on the Toronto Underground station markings.
</metadata>
<defs>
<font id="Station" horiz-adv-x="532" >
  <font-face 
    font-family="Station"
    font-weight="500"
    font-stretch="normal"
    units-per-em="1024"
    panose-1="2 0 6 3 0 0 0 0 0 0"
    ascent="819"
    descent="-205"
    x-height="683"
    cap-height="683"
    bbox="2 -45 884 699"
    underline-thickness="51"
    underline-position="-103"
    unicode-range="U+0020-U+007A"
  />
<missing-glyph horiz-adv-x="374" 
d="M34 0v682h272v-682h-272zM68 34h204v614h-204v-614z" />
    <glyph glyph-name=".notdef" horiz-adv-x="374" 
d="M34 0v682h272v-682h-272zM68 34h204v614h-204v-614z" />
    <glyph glyph-name=".null" horiz-adv-x="0" 
 />
    <glyph glyph-name="nonmarkingreturn" horiz-adv-x="341" 
 />
    <glyph glyph-name="space" unicode=" " horiz-adv-x="649" 
 />
    <glyph glyph-name="A" unicode="A" horiz-adv-x="649" 
d="M555 0l-66 143h-329l-66 -143h-89l318 698h3l318 -698h-89zM325 504h-2l-127 -282l2 -2h254l2 2z" />
    <glyph glyph-name="B" unicode="B" horiz-adv-x="509" 
d="M239 385q50 0 80 31q30 32 30 78q0 22 -9 42q-10 22 -23 35t-35 23q-19 9 -43 9h-80v-218h80zM373 357q20 -9 39 -26q17 -15 31 -39q12 -19 20 -48q8 -27 8 -51q0 -41 -15 -75t-42 -61q-28 -28 -62 -42q-36 -15 -76 -15h-200v683h168q40 0 74 -15q35 -15 60 -40
q26 -26 41 -60t15 -73q0 -43 -17 -78q-20 -41 -44 -57v-3zM159 307v-227h112q24 0 45 9q19 8 36 25t25 36q9 21 9 44t-9 44q-7 18 -25 35q-17 17 -36 25q-21 9 -45 9h-112z" />
    <glyph glyph-name="C" unicode="C" horiz-adv-x="637" 
d="M598 43q-45 -28 -93 -44q-45 -15 -106 -15q-75 0 -140 28q-68 29 -116 76q-47 46 -77 113q-28 63 -28 139q0 75 28 140q29 68 77 114q50 49 116 77q65 28 140 28q57 0 106 -15q48 -15 93 -44l-44 -71q-34 23 -73 37q-35 12 -83 12q-57 0 -106 -21t-87 -59
q-39 -39 -59 -88q-21 -51 -21 -109q0 -59 21 -109q21 -49 59 -87t87 -59t106 -21q43 0 82 12t72 36z" />
    <glyph glyph-name="D" unicode="D" horiz-adv-x="574" 
d="M76 0v683h115q72 0 135 -27q65 -28 110 -73q46 -46 73 -109q28 -65 28 -134t-28 -133q-27 -62 -73 -108q-44 -43 -110 -72q-63 -27 -135 -27h-115zM161 603v-523h34q55 0 99 20q50 23 82 56q34 36 55 83q21 48 21 102q0 55 -21 103q-21 49 -55 84q-33 34 -82 55
q-48 20 -99 20h-34z" />
    <glyph glyph-name="E" unicode="E" horiz-adv-x="544" 
d="M76 0v683h409v-80h-324v-216h246v-80h-246v-227h324v-80h-409z" />
    <glyph glyph-name="F" unicode="F" 
d="M161 603v-216h246v-80h-246v-307h-85v683h409v-80h-324z" />
    <glyph glyph-name="G" unicode="G" horiz-adv-x="758" 
d="M634 264h-168v81h255v-165q-22 -43 -56 -80t-75 -62q-40 -24 -90 -40q-45 -14 -101 -14q-75 0 -140 28q-68 29 -116 76q-47 46 -77 113q-28 63 -28 139q0 75 28 140q29 68 77 114q50 49 116 77q65 28 140 28q84 0 151 -32q75 -36 120 -88l-64 -58q-40 45 -91 71t-118 26
q-56 0 -106 -21q-47 -20 -86 -59q-38 -38 -59 -87t-21 -109t21 -109t59 -87q39 -39 86 -59q50 -21 106 -21q78 0 139 37q62 38 98 99v62z" />
    <glyph glyph-name="H" unicode="H" horiz-adv-x="665" 
d="M505 0v307h-344v-307h-85v683h85v-296h344v296h85v-683h-85z" />
    <glyph glyph-name="I" unicode="I" horiz-adv-x="236" 
d="M76 0v683h85v-683h-85z" />
    <glyph glyph-name="J" unicode="J" horiz-adv-x="448" 
d="M78 129q13 -30 40 -49q28 -20 60 -20q21 0 43 10q19 9 34 25q15 17 24 37q9 21 9 44v507h85v-507q0 -38 -16 -75q-15 -35 -41 -61t-62 -41t-76 -15q-58 0 -105 30t-71 80z" />
    <glyph glyph-name="K" unicode="K" horiz-adv-x="555" 
d="M478 -16l-315 316l-2 -1v-299h-85v683h85v-262l2 -1l277 277l58 -58l-279 -279l318 -318z" />
    <glyph glyph-name="L" unicode="L" horiz-adv-x="497" 
d="M76 0v683h85v-603h334v-80h-419z" />
    <glyph glyph-name="M" unicode="M" horiz-adv-x="885" 
d="M444 -15h-3l-235 477h-3l-113 -462h-86l171 698h3l263 -532h3l264 532h3l171 -698h-86l-113 462h-3z" />
    <glyph glyph-name="N" unicode="N" horiz-adv-x="709" 
d="M164 480h-3v-480h-85v698h3l467 -495h3v480h85v-698h-3z" />
    <glyph glyph-name="O" unicode="O" horiz-adv-x="797" 
d="M760 340q0 -76 -28 -139q-29 -65 -78 -113q-50 -48 -114 -76q-65 -28 -141 -28q-75 0 -140 28q-68 29 -116 76q-47 46 -77 113q-28 63 -28 139q0 75 28 140q29 68 77 114q50 49 116 77q65 28 140 28q76 0 141 -28q62 -27 114 -77q50 -48 78 -114q28 -65 28 -140zM672 341
q0 58 -22 111q-21 51 -58 88q-38 38 -87 59q-52 22 -107 22q-54 0 -106 -22q-47 -20 -86 -59t-59 -88q-21 -51 -21 -111q0 -59 21 -110q20 -49 59 -88t86 -59q52 -22 106 -22q55 0 107 22q49 21 87 59q37 37 58 88q22 53 22 110z" />
    <glyph glyph-name="P" unicode="P" horiz-adv-x="508" 
d="M211 683q56 0 102 -20q50 -22 84 -56q36 -36 57 -83q20 -44 20 -101q0 -55 -20 -101q-21 -47 -57 -82q-37 -35 -84 -56q-46 -20 -102 -20h-50v-164h-85v683h135zM389 421q0 38 -14 72q-13 31 -38 58q-24 25 -56 40q-31 14 -69 14q-8 0 -26 -2q-9 -1 -25 -5v-351
q29 -8 51 -8q38 0 69 14q34 15 56 39q26 27 38 59q14 36 14 72v-2z" />
    <glyph glyph-name="Q" unicode="Q" horiz-adv-x="798" 
d="M760 340q0 -63 -21 -120q-20 -55 -58 -102l103 -104l-59 -59l-104 104q-46 -35 -103 -55q-58 -20 -119 -20q-75 0 -140 28q-68 29 -116 76q-47 46 -77 113q-28 63 -28 139q0 75 28 140q29 68 77 114q50 49 116 77q65 28 140 28q76 0 141 -28q62 -27 114 -77
q50 -48 78 -114q28 -65 28 -140zM672 341q0 58 -22 111q-21 51 -58 88q-38 38 -87 59q-52 22 -107 22q-54 0 -106 -22q-47 -20 -86 -59t-59 -88q-21 -51 -21 -111q0 -59 21 -110q20 -49 59 -88t86 -59q52 -22 106 -22q55 0 107 22q49 21 87 59q37 37 58 88q22 53 22 110z
" />
    <glyph glyph-name="R" unicode="R" 
d="M211 683q56 0 102 -20q50 -22 84 -56q36 -36 57 -83q20 -44 20 -101q0 -71 -34 -129q-33 -57 -90 -91l159 -159l-60 -60l-180 180h-108v-164h-85v683h135zM212 239q38 0 69 14t56 39q24 24 38 58t14 71q0 38 -14 72q-13 31 -38 58q-24 25 -56 40q-31 14 -69 14
q-8 0 -26 -2q-9 -1 -25 -5v-351q29 -8 51 -8z" />
    <glyph glyph-name="S" unicode="S" horiz-adv-x="487" 
d="M152 364q-37 22 -60 62q-24 42 -24 90q0 40 14 71q17 37 39 59q24 24 59 39q32 14 73 14q51 0 93 -24q44 -25 67 -64l-71 -41q-13 22 -36 38q-22 15 -52 15q-18 0 -40 -9q-17 -7 -32 -22q-16 -16 -22 -32q-7 -18 -7 -41q0 -29 12 -49q13 -22 34 -37l157 -91
q44 -24 72 -69q27 -44 27 -98q0 -38 -16 -75q-15 -35 -41 -61t-62 -41q-34 -14 -76 -14q-69 0 -129 42t-106 115l66 42q32 -57 76 -90q43 -33 93 -33q24 0 43 9t34 24t24 36t9 43q0 30 -15 56q-14 24 -40 40z" />
    <glyph glyph-name="T" unicode="T" horiz-adv-x="520" 
d="M303 606v-606h-86v606h-213v77h512v-77h-213z" />
    <glyph glyph-name="U" unicode="U" horiz-adv-x="617" 
d="M161 216q0 -32 12 -60q13 -30 31 -50q19 -21 47 -33q29 -13 57 -13q29 0 58 13q28 12 47 33q20 22 32 50t12 60v467h85v-466q0 -47 -19 -91t-49 -74q-32 -32 -74 -50t-91 -18q-48 0 -90 18q-44 19 -75 50q-33 33 -50 73q-18 42 -18 91v467h85v-467z" />
    <glyph glyph-name="V" unicode="V" horiz-adv-x="653" 
d="M328 -15h-3l-321 698h90l231 -503h3l231 503h90z" />
    <glyph glyph-name="W" unicode="W" horiz-adv-x="887" 
d="M442 698h3l237 -478h3l113 463h86l-171 -698h-3l-265 535h-3l-264 -535h-3l-171 698h86l113 -463h3z" />
    <glyph glyph-name="X" unicode="X" horiz-adv-x="641" 
d="M374 341l262 -339l-1 -2h-104l-210 272l-210 -272h-105l-1 2l262 339l-262 340l1 2h105l210 -273l210 273h104l1 -2z" />
    <glyph glyph-name="Y" unicode="Y" horiz-adv-x="618" 
d="M352 220v-220h-86v220l-260 460v3h93l209 -368h3l208 368h93v-3z" />
    <glyph glyph-name="Z" unicode="Z" horiz-adv-x="562" 
d="M35 0v3l350 600v3h-340v77h482v-3l-350 -600v-3h340v-77h-482z" />
    <glyph glyph-name="a" unicode="a" horiz-adv-x="649" 
d="M555 0l-66 143h-329l-66 -143h-89l318 698h3l318 -698h-89zM325 504h-2l-127 -282l2 -2h254l2 2z" />
    <glyph glyph-name="b" unicode="b" horiz-adv-x="509" 
d="M239 385q50 0 80 31q30 32 30 78q0 22 -9 42q-10 22 -23 35t-35 23q-19 9 -43 9h-80v-218h80zM373 357q20 -9 39 -26q17 -15 31 -39q12 -19 20 -48q8 -27 8 -51q0 -41 -15 -75t-42 -61q-28 -28 -62 -42q-36 -15 -76 -15h-200v683h168q40 0 74 -15q35 -15 60 -40
q26 -26 41 -60t15 -73q0 -43 -17 -78q-20 -41 -44 -57v-3zM159 307v-227h112q24 0 45 9q19 8 36 25t25 36q9 21 9 44t-9 44q-7 18 -25 35q-17 17 -36 25q-21 9 -45 9h-112z" />
    <glyph glyph-name="c" unicode="c" horiz-adv-x="637" 
d="M598 43q-45 -28 -93 -44q-45 -15 -106 -15q-75 0 -140 28q-68 29 -116 76q-47 46 -77 113q-28 63 -28 139q0 75 28 140q29 68 77 114q50 49 116 77q65 28 140 28q57 0 106 -15q48 -15 93 -44l-44 -71q-34 23 -73 37q-35 12 -83 12q-57 0 -106 -21t-87 -59
q-39 -39 -59 -88q-21 -51 -21 -109q0 -59 21 -109q21 -49 59 -87t87 -59t106 -21q43 0 82 12t72 36z" />
    <glyph glyph-name="d" unicode="d" horiz-adv-x="574" 
d="M76 0v683h115q72 0 135 -27q65 -28 110 -73q46 -46 73 -109q28 -65 28 -134t-28 -133q-27 -62 -73 -108q-44 -43 -110 -72q-63 -27 -135 -27h-115zM161 603v-523h34q55 0 99 20q50 23 82 56q34 36 55 83q21 48 21 102q0 55 -21 103q-21 49 -55 84q-33 34 -82 55
q-48 20 -99 20h-34z" />
    <glyph glyph-name="e" unicode="e" horiz-adv-x="544" 
d="M76 0v683h409v-80h-324v-216h246v-80h-246v-227h324v-80h-409z" />
    <glyph glyph-name="f" unicode="f" 
d="M161 603v-216h246v-80h-246v-307h-85v683h409v-80h-324z" />
    <glyph glyph-name="g" unicode="g" horiz-adv-x="758" 
d="M634 264h-168v81h255v-165q-22 -43 -56 -80t-75 -62q-40 -24 -90 -40q-45 -14 -101 -14q-75 0 -140 28q-68 29 -116 76q-47 46 -77 113q-28 63 -28 139q0 75 28 140q29 68 77 114q50 49 116 77q65 28 140 28q84 0 151 -32q75 -36 120 -88l-64 -58q-40 45 -91 71t-118 26
q-56 0 -106 -21q-47 -20 -86 -59q-38 -38 -59 -87t-21 -109t21 -109t59 -87q39 -39 86 -59q50 -21 106 -21q78 0 139 37q62 38 98 99v62z" />
    <glyph glyph-name="h" unicode="h" horiz-adv-x="665" 
d="M505 0v307h-344v-307h-85v683h85v-296h344v296h85v-683h-85z" />
    <glyph glyph-name="i" unicode="i" horiz-adv-x="236" 
d="M76 0v683h85v-683h-85z" />
    <glyph glyph-name="j" unicode="j" horiz-adv-x="448" 
d="M78 129q13 -30 40 -49q28 -20 60 -20q21 0 43 10q19 9 34 25q15 17 24 37q9 21 9 44v507h85v-507q0 -38 -16 -75q-15 -35 -41 -61t-62 -41t-76 -15q-58 0 -105 30t-71 80z" />
    <glyph glyph-name="k" unicode="k" horiz-adv-x="555" 
d="M478 -16l-315 316l-2 -1v-299h-85v683h85v-262l2 -1l277 277l58 -58l-279 -279l318 -318z" />
    <glyph glyph-name="l" unicode="l" horiz-adv-x="497" 
d="M76 0v683h85v-603h334v-80h-419z" />
    <glyph glyph-name="m" unicode="m" horiz-adv-x="885" 
d="M444 -15h-3l-235 477h-3l-113 -462h-86l171 698h3l263 -532h3l264 532h3l171 -698h-86l-113 462h-3z" />
    <glyph glyph-name="n" unicode="n" horiz-adv-x="709" 
d="M164 480h-3v-480h-85v698h3l467 -495h3v480h85v-698h-3z" />
    <glyph glyph-name="o" unicode="o" horiz-adv-x="797" 
d="M760 340q0 -76 -28 -139q-29 -65 -78 -113q-50 -48 -114 -76q-65 -28 -141 -28q-75 0 -140 28q-68 29 -116 76q-47 46 -77 113q-28 63 -28 139q0 75 28 140q29 68 77 114q50 49 116 77q65 28 140 28q76 0 141 -28q62 -27 114 -77q50 -48 78 -114q28 -65 28 -140zM672 341
q0 58 -22 111q-21 51 -58 88q-38 38 -87 59q-52 22 -107 22q-54 0 -106 -22q-47 -20 -86 -59t-59 -88q-21 -51 -21 -111q0 -59 21 -110q20 -49 59 -88t86 -59q52 -22 106 -22q55 0 107 22q49 21 87 59q37 37 58 88q22 53 22 110z" />
    <glyph glyph-name="p" unicode="p" horiz-adv-x="508" 
d="M211 683q56 0 102 -20q50 -22 84 -56q36 -36 57 -83q20 -44 20 -101q0 -55 -20 -101q-21 -47 -57 -82q-37 -35 -84 -56q-46 -20 -102 -20h-50v-164h-85v683h135zM389 421q0 38 -14 72q-13 31 -38 58q-24 25 -56 40q-31 14 -69 14q-8 0 -26 -2q-9 -1 -25 -5v-351
q29 -8 51 -8q38 0 69 14q34 15 56 39q26 27 38 59q14 36 14 72v-2z" />
    <glyph glyph-name="q" unicode="q" horiz-adv-x="798" 
d="M760 340q0 -63 -21 -120q-20 -55 -58 -102l103 -104l-59 -59l-104 104q-46 -35 -103 -55q-58 -20 -119 -20q-75 0 -140 28q-68 29 -116 76q-47 46 -77 113q-28 63 -28 139q0 75 28 140q29 68 77 114q50 49 116 77q65 28 140 28q76 0 141 -28q62 -27 114 -77
q50 -48 78 -114q28 -65 28 -140zM672 341q0 58 -22 111q-21 51 -58 88q-38 38 -87 59q-52 22 -107 22q-54 0 -106 -22q-47 -20 -86 -59t-59 -88q-21 -51 -21 -111q0 -59 21 -110q20 -49 59 -88t86 -59q52 -22 106 -22q55 0 107 22q49 21 87 59q37 37 58 88q22 53 22 110z
" />
    <glyph glyph-name="r" unicode="r" 
d="M211 683q56 0 102 -20q50 -22 84 -56q36 -36 57 -83q20 -44 20 -101q0 -71 -34 -129q-33 -57 -90 -91l159 -159l-60 -60l-180 180h-108v-164h-85v683h135zM212 239q38 0 69 14t56 39q24 24 38 58t14 71q0 38 -14 72q-13 31 -38 58q-24 25 -56 40q-31 14 -69 14
q-8 0 -26 -2q-9 -1 -25 -5v-351q29 -8 51 -8z" />
    <glyph glyph-name="s" unicode="s" horiz-adv-x="487" 
d="M152 364q-37 22 -60 62q-24 42 -24 90q0 40 14 71q17 37 39 59q24 24 59 39q32 14 73 14q51 0 93 -24q44 -25 67 -64l-71 -41q-13 22 -36 38q-22 15 -52 15q-18 0 -40 -9q-17 -7 -32 -22q-16 -16 -22 -32q-7 -18 -7 -41q0 -29 12 -49q13 -22 34 -37l157 -91
q44 -24 72 -69q27 -44 27 -98q0 -38 -16 -75q-15 -35 -41 -61t-62 -41q-34 -14 -76 -14q-69 0 -129 42t-106 115l66 42q32 -57 76 -90q43 -33 93 -33q24 0 43 9t34 24t24 36t9 43q0 30 -15 56q-14 24 -40 40z" />
    <glyph glyph-name="t" unicode="t" horiz-adv-x="520" 
d="M303 606v-606h-86v606h-213v77h512v-77h-213z" />
    <glyph glyph-name="u" unicode="u" horiz-adv-x="617" 
d="M161 216q0 -32 12 -60q13 -30 31 -50q19 -21 47 -33q29 -13 57 -13q29 0 58 13q28 12 47 33q20 22 32 50t12 60v467h85v-466q0 -47 -19 -91t-49 -74q-32 -32 -74 -50t-91 -18q-48 0 -90 18q-44 19 -75 50q-33 33 -50 73q-18 42 -18 91v467h85v-467z" />
    <glyph glyph-name="v" unicode="v" horiz-adv-x="653" 
d="M328 -15h-3l-321 698h90l231 -503h3l231 503h90z" />
    <glyph glyph-name="w" unicode="w" horiz-adv-x="887" 
d="M442 698h3l237 -478h3l113 463h86l-171 -698h-3l-265 535h-3l-264 -535h-3l-171 698h86l113 -463h3z" />
    <glyph glyph-name="x" unicode="x" horiz-adv-x="641" 
d="M374 341l262 -339l-1 -2h-104l-210 272l-210 -272h-105l-1 2l262 339l-262 340l1 2h105l210 -273l210 273h104l1 -2z" />
    <glyph glyph-name="y" unicode="y" horiz-adv-x="618" 
d="M352 220v-220h-86v220l-260 460v3h93l209 -368h3l208 368h93v-3z" />
    <glyph glyph-name="z" unicode="z" horiz-adv-x="562" 
d="M35 0v3l350 600v3h-340v77h482v-3l-350 -600v-3h340v-77h-482z" />
  </font>
</defs>
</svg>
